# xmcd
#
# Track frame offsets: 
#        150
#        13265
#        28772
#        38620
#        52685
#        65922
#        77967
#        88525
#        100720
#        113512
#        124257
#        134962
#        153472
#        176187
#        203697
#        233080
#        267045
#        279777
#        293185
#        304585
#
# Disc length: 4357 seconds
#
# Revision: 0
# Processed by: cddbd v1.4PL0 Copyright (c) Steve Scherf et al.
# Submitted via: ExactAudioCopy v0.90a11
#
DISCID=13110314
DTITLE=Various Artist - United World Of Music - Blues
DYEAR=1900
DGENRE=
TTITLE0=Elmore James - Dust My Broom
TTITLE1=Albert King - Born Under A Bad Sign
TTITLE2=John Lee Hooker - Dimples
TTITLE3=Otis Rush - I Can't Quit You Baby
TTITLE4=Magic Sam - All Your Love
TTITLE5=Jimmy Reed - Bright Lights, Big City
TTITLE6=Lightnin' Hopkins - Coffee House Blues
TTITLE7=Muddy Waters - I Can't Be Satisfied
TTITLE8=Howlin' Wolf How Many More Years
TTITLE9=Junior Parker - Mystery Train
TTITLE10=Arthur 'Big Boy' Crudup - Ethel Mae
TTITLE11=Robert Cray - The Score
TTITLE12=B.B. King - The Thrill Is Gone
TTITLE13=Clarence 'Gatemouth' Brown - Frosty
TTITLE14=Albert Collins - Black Cat Bone
TTITLE15=Freddie King - Big Legged Woman
TTITLE16=Big Bill Broonzy - Rockin' Chair Blues
TTITLE17=T-Bone Walker - T-Bone Shuffle
TTITLE18=Robert Johnson - Love In Vain
TTITLE19=Luther Allison - Sweet Home Chicago
EXTD=
EXTT0=
EXTT1=
EXTT2=
EXTT3=
EXTT4=
EXTT5=
EXTT6=
EXTT7=
EXTT8=
EXTT9=
EXTT10=
EXTT11=
EXTT12=
EXTT13=
EXTT14=
EXTT15=
EXTT16=
EXTT17=
EXTT18=
EXTT19=
PLAYORDER=
